<svg width="24" height="24" viewBox="0 0 24 24" fill="none" xmlns="http://www.w3.org/2000/svg">
<path d="M14.5322 7.5791C14.5349 7.58454 14.5373 7.59031 14.54 7.5957C14.7967 8.09704 15.2777 8.44512 15.834 8.5332L15.8467 8.53516L21.7002 9.38672L17.5117 13.4668L17.5049 13.4736C17.1013 13.875 16.9178 14.4478 17.0137 15.0088V15.0098L18.0039 20.7969L12.8154 18.0654L12.8145 18.0664C12.3257 17.8006 11.7398 17.781 11.2344 18.0166L11.1904 18.0381L6.00977 20.7656L7 14.9814L7.00098 14.9746C7.09335 14.4104 6.90404 13.8361 6.49414 13.4375L6.49219 13.4365L2.29785 9.37695L8.08301 8.53516L8.08203 8.53418C8.65232 8.45328 9.14495 8.09514 9.39746 7.57715L11.9648 2.3291L14.5322 7.5791Z" stroke="black" stroke-width="2" stroke-linecap="round" stroke-linejoin="round"/>
</svg>
